<?xml version="1.0" encoding="UTF-8" standalone="no"?>
<svg
   xmlns:dc="http://purl.org/dc/elements/1.1/"
   xmlns:cc="http://creativecommons.org/ns#"
   xmlns:rdf="http://www.w3.org/1999/02/22-rdf-syntax-ns#"
   xmlns:svg="http://www.w3.org/2000/svg"
   xmlns="http://www.w3.org/2000/svg"
   viewBox="0 0 1000 1000"
   height="1000"
   width="1000"
   xml:space="preserve"
   version="1.1"
   id="svg2"><metadata
     id="metadata8"><rdf:RDF><cc:Work
         rdf:about=""><dc:format>image/svg+xml</dc:format><dc:type
           rdf:resource="http://purl.org/dc/dcmitype/StillImage" /><dc:title></dc:title></cc:Work></rdf:RDF></metadata><defs
     id="defs6"><clipPath
       id="clipPath16"
       clipPathUnits="userSpaceOnUse"><path
         id="path18"
         d="M 0,800 800,800 800,0 0,0 0,800 Z" /></clipPath></defs><g
     transform="matrix(1.25,0,0,-1.25,0,1000)"
     id="g10"><path
       id="path22"
       transform="matrix(0.8,0,0,-0.8,0,800)"
       d="M 40 -0.009765625 C 18 -0.009765625 -4.8572257e-017 17.990234 0 39.990234 L 0 959.99023 C 0 981.99023 18 999.99023 40 999.99023 L 960 999.99023 C 982 999.99023 1000 981.99023 1000 959.99023 L 1000 39.990234 C 1000 17.990234 982 -0.009765625 960 -0.009765625 L 40 -0.009765625 z M 454.60938 237.19141 C 568.00563 237.19141 658.05258 300.41367 660.01758 422.82617 C 660.01758 423.02867 660.05664 423.9343 660.05664 424.2168 C 660.05664 427.6843 658.74727 430.9893 656.22852 433.5293 C 655.34227 434.4168 654.29133 435.16016 653.20508 435.78516 C 650.98758 437.03516 648.46867 437.78125 645.82617 437.78125 L 541.75586 437.78125 C 539.13586 437.78125 536.76414 436.95391 534.65039 435.78516 C 531.11289 433.81016 528.41328 430.62547 527.67578 426.57422 C 527.44328 425.28547 527.16383 424.05539 526.89258 422.80664 C 525.87508 417.78789 524.66344 412.89156 523.24219 408.19531 C 513.04469 380.20156 486.27797 360.18945 454.76172 360.18945 C 414.45922 360.18945 381.78516 392.85828 381.78516 433.14453 L 381.78516 569.6875 C 381.78516 609.995 414.45922 642.64258 454.76172 642.64258 C 489.85922 642.64258 519.16047 617.85352 526.13672 584.82227 C 526.19672 584.54102 527.15383 580.04547 527.51758 578.01172 C 528.70383 571.54297 534.62828 566.80469 541.61328 566.80469 L 645.82617 566.80469 C 649.78867 566.80469 653.54805 568.35813 656.24805 571.07812 C 658.45555 573.29439 659.72508 576.19844 660.01758 579.17969 C 660.05633 579.86594 659.83438 586.57672 659.76562 587.54297 C 657.33564 635.30672 641.13141 673.62047 615.25391 702.19922 C 600.56266 718.46172 582.66594 731.45969 562.46094 741.39844 C 531.30594 756.73344 494.58281 764.61523 454.88281 764.61523 C 340.26281 764.61523 249.41406 700.0032 249.41406 574.9082 L 249.41406 426.89648 C 249.41406 302.10523 339.52492 237.51344 453.79492 237.21094 C 454.07492 237.21094 454.33312 237.19141 454.60938 237.19141 z M 775.90234 619.50781 C 817.58109 619.50781 849.05078 651.87477 849.05078 690.79102 C 849.05078 731.50102 821.28562 766.69141 776.82812 766.69141 C 735.14812 766.69141 703.68945 732.42977 703.68945 690.79102 C 703.68945 651.87477 735.14984 619.50781 775.90234 619.50781 z "
       style="fill:#ffffff;fill-opacity:1;fill-rule:nonzero;stroke:none" /></g></svg>