<?xml version="1.0" encoding="UTF-8" standalone="no"?>
<svg
   xmlns:dc="http://purl.org/dc/elements/1.1/"
   xmlns:cc="http://creativecommons.org/ns#"
   xmlns:rdf="http://www.w3.org/1999/02/22-rdf-syntax-ns#"
   xmlns:svg="http://www.w3.org/2000/svg"
   xmlns="http://www.w3.org/2000/svg"
   xmlns:sodipodi="http://sodipodi.sourceforge.net/DTD/sodipodi-0.dtd"
   xmlns:inkscape="http://www.inkscape.org/namespaces/inkscape"
   width="120"
   height="42"
   viewBox="0 0 120 42"
   version="1.1"
   id="svg2"
   inkscape:version="0.91 r13725"
   sodipodi:docname="cc_by-nc-nd_euro_icon.svg">
  <metadata
     id="metadata47">
    <rdf:RDF>
      <cc:Work
         rdf:about="">
        <dc:format>image/svg+xml</dc:format>
        <dc:type
           rdf:resource="http://purl.org/dc/dcmitype/StillImage" />
      </cc:Work>
    </rdf:RDF>
  </metadata>
  <defs
     id="defs45" />
  <sodipodi:namedview
     pagecolor="#ffffff"
     bordercolor="#666666"
     borderopacity="1"
     objecttolerance="10"
     gridtolerance="10"
     guidetolerance="10"
     inkscape:pageopacity="0"
     inkscape:pageshadow="2"
     inkscape:window-width="1920"
     inkscape:window-height="1017"
     id="namedview43"
     showgrid="false"
     inkscape:zoom="6.9767869"
     inkscape:cx="77.377457"
     inkscape:cy="35.066564"
     inkscape:window-x="-8"
     inkscape:window-y="-8"
     inkscape:window-maximized="1"
     inkscape:current-layer="svg2" />
  <path
     inkscape:connector-curvature="0"
     id="path9"
     d="m 34.523438,19.542969 c 0.0039,7.53125 -6.097657,13.636719 -13.628907,13.644531 -7.527343,0.0039 -13.636718,-6.097656 -13.640625,-13.625 0,-0.0078 0,-0.01172 0,-0.01953 C 7.25,12.015625 13.351563,5.90625 20.878906,5.902344 28.410156,5.898438 34.519531,12 34.523438,19.527344 c 0,0.0078 0,0.01172 0,0.01563 z"
     style="fill:#ffffff;fill-opacity:1;fill-rule:nonzero;stroke:none" />
  <path
     inkscape:connector-curvature="0"
     id="path11"
     d="m 31.972656,8.441406 c 3.023438,3.023438 4.535157,6.722657 4.535157,11.101563 0,4.382812 -1.484375,8.042969 -4.457032,10.988281 -3.15625,3.105469 -6.882812,4.652344 -11.183593,4.652344 -4.246094,0 -7.910157,-1.535156 -10.984375,-4.613281 -3.078125,-3.074219 -4.613282,-6.75 -4.613282,-11.027344 0,-4.273438 1.535157,-7.972656 4.613282,-11.101563 2.996093,-3.027343 6.660156,-4.535156 10.984375,-4.535156 4.378906,0 8.082031,1.507813 11.105468,4.535156 z m -20.054687,2.03125 c -2.558594,2.582032 -3.835938,5.605469 -3.835938,9.078125 0,3.464844 1.265625,6.464844 3.796875,8.992188 2.53125,2.53125 5.542969,3.796875 9.035157,3.796875 3.496093,0 6.53125,-1.277344 9.117187,-3.832031 2.449219,-2.375 3.675781,-5.359375 3.675781,-8.960938 0,-3.570312 -1.246093,-6.601562 -3.738281,-9.09375 C 27.480469,7.964844 24.460938,6.71875 20.914063,6.71875 c -3.546875,0 -6.546875,1.253906 -8.996094,3.753906 z m 6.726562,7.550782 c -0.390625,-0.851563 -0.976562,-1.277344 -1.753906,-1.277344 -1.378906,0 -2.070312,0.925781 -2.070312,2.78125 0,1.855469 0.691406,2.785156 2.070312,2.785156 0.910156,0 1.558594,-0.453125 1.949219,-1.359375 L 20.75,21.972656 c -0.910156,1.617188 -2.277344,2.425782 -4.097656,2.425782 -1.40625,0 -2.53125,-0.429688 -3.378906,-1.289063 -0.84375,-0.863281 -1.269532,-2.050781 -1.269532,-3.5625 0,-1.488281 0.4375,-2.671875 1.308594,-3.546875 0.871094,-0.875 1.960938,-1.308594 3.261719,-1.308594 1.925781,0 3.304687,0.757813 4.140625,2.273438 z m 8.988282,0 c -0.390625,-0.851563 -0.964844,-1.277344 -1.71875,-1.277344 -1.40625,0 -2.109375,0.925781 -2.109375,2.78125 0,1.855469 0.703125,2.785156 2.109375,2.785156 0.914062,0 1.550781,-0.453125 1.914062,-1.359375 l 1.953125,1.019531 c -0.90625,1.617188 -2.273437,2.425782 -4.089844,2.425782 -1.402343,0 -2.527343,-0.429688 -3.371093,-1.289063 -0.84375,-0.863281 -1.269532,-2.050781 -1.269532,-3.5625 0,-1.488281 0.429688,-2.671875 1.289063,-3.546875 0.855469,-0.875 1.949219,-1.308594 3.273437,-1.308594 1.921875,0 3.300782,0.757813 4.128907,2.273438 z"
     style="fill:#4d4d4d;fill-opacity:1;fill-rule:nonzero;stroke:none" />
  <path
     inkscape:connector-curvature="0"
     id="path13"
     d="m 48.09375,32.746094 c 0.316406,0 0.605469,0.03125 0.863281,0.08594 0.261719,0.05469 0.484375,0.144532 0.667969,0.273438 0.1875,0.125 0.332031,0.292969 0.433594,0.503906 0.101562,0.210938 0.152344,0.46875 0.152344,0.777344 0,0.335937 -0.07422,0.613281 -0.226563,0.835937 -0.152344,0.222657 -0.375,0.402344 -0.675781,0.546875 0.410156,0.117188 0.71875,0.324219 0.917969,0.617188 0.203125,0.292969 0.304687,0.648437 0.304687,1.0625 0,0.332031 -0.06641,0.621094 -0.195312,0.867187 -0.132813,0.242188 -0.308594,0.445313 -0.527344,0.597657 -0.21875,0.15625 -0.46875,0.269531 -0.75,0.34375 -0.285156,0.07422 -0.574219,0.113281 -0.871094,0.113281 l -3.214844,0 0,-6.625 z m -0.1875,2.679687 c 0.261719,0 0.476563,-0.0625 0.640625,-0.183593 0.167969,-0.125 0.25,-0.324219 0.25,-0.601563 0,-0.15625 -0.02734,-0.28125 -0.08203,-0.378906 -0.05469,-0.101563 -0.128906,-0.175781 -0.222656,-0.234375 -0.09375,-0.05469 -0.199219,-0.09375 -0.320313,-0.113281 -0.121094,-0.02344 -0.246094,-0.03516 -0.375,-0.03516 l -1.367187,0 0,1.546875 z m 0.08594,2.808594 c 0.144531,0 0.277343,-0.01172 0.410156,-0.03906 0.128906,-0.02734 0.242187,-0.07422 0.34375,-0.140625 0.09766,-0.0625 0.175781,-0.152344 0.234375,-0.265625 0.0625,-0.109375 0.08984,-0.25 0.08984,-0.425782 0,-0.339843 -0.09766,-0.582031 -0.289063,-0.726562 -0.191406,-0.144531 -0.445312,-0.21875 -0.761719,-0.21875 l -1.589843,0 0,1.816406 z"
     style="fill:#ffffff;fill-opacity:1;fill-rule:nonzero;stroke:none" />
  <path
     inkscape:connector-curvature="0"
     id="path15"
     d="m 50.789063,32.746094 1.632812,0 1.550781,2.617187 1.539063,-2.617187 1.625,0 -2.457031,4.082031 0,2.542969 -1.460938,0 0,-2.582031 z"
     style="fill:#ffffff;fill-opacity:1;fill-rule:nonzero;stroke:none" />
  <path
     inkscape:connector-curvature="0"
     id="path17"
     d="m 72.515625,32.746094 2.769531,4.445312 0.01563,0 0,-4.445312 1.367188,0 0,6.625 -1.457031,0 -2.757813,-4.433594 -0.01953,0 0,4.433594 -1.367188,0 0,-6.625 z"
     style="fill:#ffffff;fill-opacity:1;fill-rule:nonzero;stroke:none" />
  <path
     inkscape:connector-curvature="0"
     id="path19"
     d="M 82.195313,34.511719 C 82.109375,34.371094 82,34.25 81.871094,34.144531 81.738281,34.039063 81.59375,33.957031 81.429688,33.898438 81.265625,33.839844 81.09375,33.8125 80.914063,33.8125 c -0.328125,0 -0.605469,0.0625 -0.835938,0.1875 -0.226562,0.128906 -0.414062,0.296875 -0.554687,0.511719 -0.144532,0.210937 -0.246094,0.453125 -0.3125,0.726562 -0.0625,0.273438 -0.09766,0.554688 -0.09766,0.84375 0,0.277344 0.03516,0.550782 0.09766,0.8125 0.06641,0.261719 0.167968,0.5 0.3125,0.707032 0.140625,0.210937 0.328125,0.378906 0.554687,0.507812 0.230469,0.125 0.507813,0.1875 0.835938,0.1875 0.445312,0 0.792968,-0.132812 1.042968,-0.40625 0.25,-0.273437 0.40625,-0.632812 0.460938,-1.078125 l 1.410156,0 c -0.03906,0.414063 -0.132812,0.789063 -0.289062,1.125 -0.152344,0.332031 -0.359375,0.617188 -0.613282,0.851563 -0.25,0.238281 -0.546875,0.417968 -0.890625,0.542968 -0.339843,0.121094 -0.710937,0.183594 -1.121093,0.183594 -0.507813,0 -0.964844,-0.08594 -1.367188,-0.265625 -0.40625,-0.171875 -0.75,-0.417969 -1.027344,-0.726562 -0.28125,-0.308594 -0.492187,-0.671875 -0.640625,-1.089844 -0.148437,-0.417969 -0.222656,-0.867188 -0.222656,-1.351563 0,-0.496093 0.07422,-0.953125 0.222656,-1.378906 0.148438,-0.421875 0.359375,-0.792969 0.640625,-1.109375 0.277344,-0.3125 0.621094,-0.5625 1.027344,-0.742187 0.402344,-0.179688 0.859375,-0.265625 1.367188,-0.265625 0.367187,0 0.710937,0.05078 1.035156,0.15625 0.324219,0.105468 0.617187,0.257812 0.871094,0.460937 0.257812,0.199219 0.46875,0.449219 0.636718,0.746094 0.167969,0.296875 0.269532,0.636719 0.316407,1.019531 l -1.410157,0 c -0.02734,-0.164062 -0.08203,-0.320312 -0.167968,-0.457031 z"
     style="fill:#ffffff;fill-opacity:1;fill-rule:nonzero;stroke:none" />
  <path
     inkscape:connector-curvature="0"
     id="path21"
     d="m 98.355469,32.746094 2.765621,4.445312 0.0156,0 0,-4.445312 1.36719,0 0,6.625 -1.45703,0 -2.753911,-4.433594 -0.01953,0 0,4.433594 -1.367188,0 0,-6.625 z"
     style="fill:#ffffff;fill-opacity:1;fill-rule:nonzero;stroke:none" />
  <path
     inkscape:connector-curvature="0"
     id="path23"
     d="m 106.64063,32.746094 c 0.42578,0 0.82421,0.07031 1.19531,0.207031 0.36719,0.132813 0.68359,0.339844 0.95312,0.609375 0.26953,0.273438 0.48047,0.613281 0.63282,1.019531 0.15234,0.410157 0.22656,0.890625 0.22656,1.441407 0,0.480468 -0.0625,0.925781 -0.1836,1.332031 -0.125,0.410156 -0.3125,0.761719 -0.5625,1.058594 -0.25,0.296875 -0.5625,0.53125 -0.9375,0.699218 -0.375,0.171875 -0.8164,0.257813 -1.32421,0.257813 l -2.85938,0 0,-6.625 z m -0.10157,5.398437 c 0.21094,0 0.41407,-0.03516 0.61328,-0.105468 0.19532,-0.06641 0.375,-0.179688 0.52735,-0.335938 0.15625,-0.15625 0.27734,-0.363281 0.37109,-0.617187 0.0937,-0.253907 0.14063,-0.5625 0.14063,-0.925782 0,-0.332031 -0.0352,-0.632812 -0.0977,-0.902343 -0.0664,-0.269532 -0.17187,-0.5 -0.32031,-0.691407 -0.1484,-0.191406 -0.34371,-0.339843 -0.58981,-0.441406 -0.24609,-0.101562 -0.54687,-0.152344 -0.90234,-0.152344 l -1.04297,0 0,4.171875 z"
     style="fill:#ffffff;fill-opacity:1;fill-rule:nonzero;stroke:none" />
  <path
     inkscape:connector-curvature="0"
     id="path25"
     d="m 114.66797,14.980469 c 0.004,5.84375 -4.73047,10.585937 -10.57422,10.59375 C 98.246094,25.578125 93.503906,20.84375 93.5,14.996094 c 0,-0.0039 0,-0.01172 0,-0.01563 -0.0039,-5.84375 4.730469,-10.585938 10.57813,-10.589844 5.84375,-0.00781 10.58593,4.730469 10.58984,10.574219 0,0.0078 0,0.01172 0,0.01563 z"
     style="fill:#ffffff;fill-opacity:1;fill-rule:nonzero;stroke:none" />
  <path
     inkscape:connector-curvature="0"
     id="path27"
     d="m 103.91797,3.386719 c -3.21094,0 -5.929689,1.121094 -8.156251,3.363281 -2.285156,2.316406 -3.425781,5.058594 -3.425781,8.230469 0,3.171875 1.140625,5.894531 3.425781,8.175781 2.28125,2.28125 5.003911,3.417969 8.156251,3.417969 3.19141,0 5.96094,-1.148438 8.30078,-3.445313 2.20703,-2.1875 3.30859,-4.902343 3.30859,-8.148437 0,-3.246094 -1.12109,-5.992188 -3.36718,-8.230469 -2.24219,-2.242187 -4.99219,-3.363281 -8.24219,-3.363281 z m 0.0273,2.085937 c 2.63282,0 4.86719,0.925782 6.70703,2.785157 1.85938,1.832031 2.78516,4.074218 2.78516,6.722656 0,2.667969 -0.91016,4.878906 -2.72656,6.636719 -1.91797,1.894531 -4.17188,2.839843 -6.76563,2.839843 -2.59375,0 -4.828122,-0.933593 -6.703122,-2.808593 -1.878907,-1.875 -2.816407,-4.097657 -2.816407,-6.667969 0,-2.570313 0.949219,-4.8125 2.84375,-6.722656 1.820313,-1.859375 4.042969,-2.785157 6.675779,-2.785157 z"
     style="fill:#4d4d4d;fill-opacity:1;fill-rule:nonzero;stroke:none" />
  <path
     inkscape:connector-curvature="0"
     id="path29"
     d="m 108.3125,12.234375 -8.425781,0 0,1.996094 8.425781,0 z m 0,3.726563 -8.425781,0 0,1.996093 8.425781,0 z"
     style="fill:#4d4d4d;fill-opacity:1;fill-rule:nonzero;stroke:none" />
  <path
     inkscape:connector-curvature="0"
     id="path31"
     d="m 62.503906,15.21875 c 0,5.929688 -4.808593,10.734375 -10.738281,10.734375 -5.933594,0 -10.742187,-4.804687 -10.742187,-10.734375 0,-5.933594 4.808593,-10.738281 10.742187,-10.738281 5.929688,0 10.738281,4.804687 10.738281,10.738281 z"
     style="fill:#ffffff;fill-opacity:1;fill-rule:nonzero;stroke:none" />
  <path
     inkscape:connector-curvature="0"
     id="path33"
     d="m 54.871094,12.109375 c 0,-0.414062 -0.335938,-0.75 -0.75,-0.75 l -4.742188,0 c -0.414062,0 -0.75,0.335938 -0.75,0.75 l 0,4.742188 1.324219,0 0,5.617187 3.59375,0 0,-5.617187 1.324219,0 z"
     style="fill:#4d4d4d;fill-opacity:1;fill-rule:nonzero;stroke:none" />
  <path
     inkscape:connector-curvature="0"
     id="path35"
     d="m 53.375,9.113281 c 0,0.898438 -0.726562,1.621094 -1.625,1.621094 -0.894531,0 -1.621094,-0.722656 -1.621094,-1.621094 0,-0.894531 0.726563,-1.621093 1.621094,-1.621093 0.898438,0 1.625,0.726562 1.625,1.621093 z"
     style="fill:#4d4d4d;fill-opacity:1;fill-rule:nonzero;stroke:none" />
  <path
     inkscape:connector-curvature="0"
     id="path37"
     d="m 51.738281,3.386719 c -3.214843,0 -5.933593,1.121094 -8.15625,3.363281 -2.285156,2.316406 -3.425781,5.0625 -3.425781,8.230469 0,3.167969 1.140625,5.894531 3.425781,8.175781 2.28125,2.277344 5,3.417969 8.15625,3.417969 3.191407,0 5.957032,-1.148438 8.300782,-3.449219 2.207031,-2.183594 3.308593,-4.898437 3.308593,-8.144531 0,-3.246094 -1.121093,-5.992188 -3.367187,-8.230469 C 57.734375,4.507813 54.988281,3.386719 51.738281,3.386719 Z m 0.02734,2.085937 c 2.632813,0 4.867188,0.925782 6.703125,2.78125 1.859375,1.835938 2.789063,4.078125 2.789063,6.726563 0,2.667969 -0.910157,4.878906 -2.730469,6.636719 -1.914063,1.894531 -4.167969,2.839843 -6.761719,2.839843 -2.59375,0 -4.828125,-0.933593 -6.707031,-2.808593 -1.875,-1.875 -2.8125,-4.097657 -2.8125,-6.667969 0,-2.570313 0.945312,-4.8125 2.84375,-6.726563 1.820312,-1.855468 4.042969,-2.78125 6.675781,-2.78125 z"
     style="fill:#4d4d4d;fill-opacity:1;fill-rule:evenodd;stroke:none" />
  <path
     inkscape:connector-curvature="0"
     id="path39"
     d="m 87.800781,14.980469 c 0.0039,5.5 -4.449218,9.960937 -9.953125,9.96875 -5.5,0 -9.960937,-4.453125 -9.964843,-9.953125 0,-0.0078 0,-0.01172 0,-0.01563 -0.0039,-5.5 4.449218,-9.960938 9.953125,-9.964844 5.5,-0.00391 9.960937,4.449219 9.964843,9.949219 0,0.0078 0,0.01172 0,0.01563 z"
     style="fill:#ffffff;fill-opacity:1;fill-rule:nonzero;stroke:none" />
  <path
     inkscape:connector-curvature="0"
     id="path41"
     d="M 86.070313,6.746094 C 83.824219,4.503906 81.078125,3.382813 77.828125,3.382813 c -3.214844,0 -5.933594,1.121093 -8.15625,3.363281 -2.285156,2.320312 -3.425781,5.0625 -3.425781,8.234375 0,3.167969 1.140625,5.894531 3.425781,8.175781 2.28125,2.28125 5,3.417969 8.15625,3.417969 3.191406,0 5.957031,-1.148438 8.300781,-3.449219 2.207032,-2.183594 3.308594,-4.898437 3.308594,-8.144531 0,-3.25 -1.121094,-5.992188 -3.367187,-8.234375 z m -1.453125,14.871094 c -1.914063,1.894531 -4.167969,2.839843 -6.761719,2.839843 -2.59375,0 -4.828125,-0.933593 -6.707031,-2.808593 -1.875,-1.875 -2.8125,-4.097657 -2.8125,-6.667969 0,-1.089844 0.171875,-2.117188 0.507812,-3.085938 l 3.074219,1.359375 -0.222656,0 0,1.378907 1.089843,0 c 0,0.195312 -0.01953,0.390625 -0.01953,0.582031 l 0,0.332031 -1.070312,0 0,1.378906 1.261718,0 c 0.175782,1.027344 0.566407,1.863282 1.089844,2.523438 1.085938,1.4375 2.832031,2.210937 4.734375,2.210937 1.246094,0 2.371094,-0.367187 3.03125,-0.738281 l -0.46875,-2.152344 c -0.40625,0.214844 -1.316406,0.503907 -2.210937,0.503907 -0.972657,0 -1.882813,-0.289063 -2.503907,-0.988282 C 76.335938,17.953125 76.125,17.507813 75.988281,16.925781 l 4.21875,0 6,2.652344 c -0.417968,0.738281 -0.945312,1.417969 -1.589843,2.039063 z m -7.539063,-6.070313 -0.02734,-0.01953 0.04297,0.01953 z m 3.609375,-0.914062 0.171875,0 0,-1.378907 -3.285156,0 -1.335938,-0.589843 c 0.113282,-0.257813 0.25,-0.488282 0.410157,-0.667969 0.601562,-0.742188 1.453125,-1.050781 2.386718,-1.050781 0.855469,0 1.648438,0.25 2.15625,0.464843 l 0.542969,-2.210937 c -0.699219,-0.3125 -1.726562,-0.582031 -2.914062,-0.582031 -1.824219,0 -3.375,0.734375 -4.484375,1.976562 -0.246094,0.285156 -0.457032,0.605469 -0.652344,0.941406 l -3.8125,-1.6875 C 70.242188,9.292969 70.675781,8.761719 71.179688,8.253906 73,6.398438 75.222656,5.46875 77.855469,5.46875 c 2.632812,0 4.867187,0.929688 6.707031,2.785156 1.855469,1.835938 2.785156,4.078125 2.785156,6.726563 0,0.871094 -0.09766,1.695312 -0.292968,2.46875 z"
     style="fill:#4d4d4d;fill-opacity:1;fill-rule:nonzero;stroke:none" />
</svg>
