<?xml version="1.0" standalone="no"?>
<!-- Generator: Adobe Fireworks 10, Export SVG Extension by Aaron Beall (http://fireworks.abeall.com) . Version: 0.6.1  -->
<!DOCTYPE svg PUBLIC "-//W3C//DTD SVG 1.1//EN" "http://www.w3.org/Graphics/SVG/1.1/DTD/svg11.dtd">
<svg id="Untitled-P%E1gina%201" viewBox="0 0 978 286" style="background-color:#ffffff" version="1.1"
	xmlns="http://www.w3.org/2000/svg" xmlns:xlink="http://www.w3.org/1999/xlink" xml:space="preserve"
	x="0px" y="0px" width="978px" height="286px"
>
	<g id="Capa%201">
		<g id="Capa%202">
			<rect x="0" y="0" width="978" height="286" stroke="#ffffff00" stroke-width="1" fill="#13b2b4"/>
		</g>
		<g opacity="0.302">
			<path d="M 163.8549 143 L 163.1523 142.5883 L 163.1523 143 " fill="#c5c5c5"/>
			<path d="M 163.1523 143 L 163.1523 238.1432 L 244.7345 190.3972 L 163.8549 143 " fill="#c5c5c5"/>
			<path d="M 326.2315 238.1432 L 326.2315 285.8896 L 407.8134 285.8896 L 326.2315 238.1432 Z" fill="#d1d1d1"/>
			<path d="M 163.1523 238.1432 L 163.1523 238.1432 L 81.644 285.8896 L 163.1523 285.8896 L 163.1523 238.1432 Z" fill="#d1d1d1"/>
			<path d="M 489.3799 238.1432 L 489.3799 238.1432 L 407.7825 285.8896 L 489.3799 285.8896 L 489.3799 238.1432 Z" fill="#d1d1d1"/>
			<path d="M 0.0737 238.1432 L 0.0737 285.8896 L 81.644 285.8896 L 0.0737 238.1432 Z" fill="#b3b3b3"/>
			<path d="M 244.7345 190.3972 L 244.7345 190.3972 L 163.1523 238.1432 L 244.7345 285.8896 L 244.7345 190.3972 Z" fill="#d9d9d9"/>
			<path d="M 326.2315 143 L 326.2315 142.5883 L 326.2315 142.5883 L 325.5296 143 " fill="#d9d9d9"/>
			<path d="M 325.5296 143 L 244.7345 190.3972 L 326.2315 238.1432 L 326.2315 143 " fill="#d9d9d9"/>
			<path d="M 81.644 143 L 0.0737 142.5883 L 81.644 190.3972 L 81.644 143 " fill="#999999"/>
			<path d="M 0.0737 142.5883 L 0.0737 142.5883 L 0.0737 238.1432 L 81.644 190.3972 L 0.0737 142.5883 Z" fill="#a6a6a6"/>
			<path d="M 162.4504 143 L 163.1523 142.5883 L 81.644 143 " fill="#c5c5c5"/>
			<path d="M 81.644 143 L 81.644 190.3972 L 162.4504 143 " fill="#c5c5c5"/>
			<path d="M 163.1523 143 L 163.1523 142.5883 L 163.1523 142.5883 L 162.4504 143 " fill="#cccccc"/>
			<path d="M 162.4504 143 L 81.644 190.3972 L 163.1523 238.1432 L 163.1523 143 " fill="#cccccc"/>
			<path d="M 81.644 190.3972 L 81.644 190.3972 L 81.644 285.8896 L 163.1523 238.1432 L 81.644 190.3972 Z" fill="#a6a6a6"/>
			<path d="M 81.644 190.3972 L 81.644 190.3972 L 0.0737 238.1432 L 81.644 285.8896 L 81.644 190.3972 Z" fill="#c5c5c5"/>
			<path d="M 407.7825 143 L 326.2315 142.5883 L 326.9338 143 " fill="#d9d9d9"/>
			<path d="M 326.9338 143 L 407.7825 190.3972 L 407.7825 143 " fill="#d9d9d9"/>
			<path d="M 326.9341 143 L 326.2315 142.5883 L 326.2315 142.5883 L 326.2315 143 " fill="#e6e6e6"/>
			<path d="M 326.2315 143 L 326.2315 238.1432 L 407.8134 190.3972 L 326.9341 143 " fill="#e6e6e6"/>
			<path d="M 488.6772 143 L 489.3799 142.5883 L 407.7825 143 " fill="#cccccc"/>
			<path d="M 407.7825 143 L 407.7825 190.3972 L 488.6772 143 " fill="#cccccc"/>
			<path d="M 489.3799 143 L 489.3799 142.5883 L 489.3799 142.5883 L 489.3799 142.5883 L 488.6772 143 " fill="#c5c5c5"/>
			<path d="M 488.6772 143 L 407.7825 190.3972 L 489.3799 238.1432 L 489.3799 143 " fill="#c5c5c5"/>
			<path d="M 407.7825 190.3972 L 407.7825 190.3972 L 407.7825 285.8896 L 489.3799 238.1432 L 407.7825 190.3972 Z" fill="#cccccc"/>
			<path d="M 407.7825 190.3972 L 407.7825 190.3972 L 326.2315 238.1432 L 407.7825 285.8896 L 407.7825 190.3972 Z" fill="#c5c5c5"/>
			<path d="M 326.2315 142.5883 L 326.2315 142.5883 L 326.2315 142.5883 Z" fill="#5d2d04"/>
			<path d="M 325.5296 143 L 326.2315 142.5883 L 326.2586 142.5883 L 244.7345 143 " fill="#cccccc"/>
			<path d="M 244.7345 143 L 244.7345 190.3972 L 325.5296 143 " fill="#cccccc"/>
			<path d="M 244.7345 143 L 163.1523 142.5883 L 163.8549 143 " fill="#cccccc"/>
			<path d="M 163.8549 143 L 244.7345 190.3972 L 244.7345 143 " fill="#cccccc"/>
			<path d="M 163.1523 238.1432 L 163.1523 238.1432 L 163.1523 285.8896 L 244.7345 285.8896 L 163.1523 238.1432 Z" fill="#d1d1d1"/>
			<path d="M 244.7345 190.3972 L 244.7345 285.8896 L 326.2586 238.1432 L 244.7345 190.3972 Z" fill="#d1d1d1"/>
			<path d="M 326.2315 238.1432 L 326.2315 238.1432 L 244.7345 285.8896 L 326.2315 285.8896 L 326.2315 238.1432 Z" fill="#d9d9d9"/>
			<path d="M 163.8549 142.4778 L 163.1523 142.8896 L 163.1523 142.4778 " fill="#c5c5c5"/>
			<path d="M 163.1523 143.4778 L 163.1523 48.3347 L 244.7345 96.0806 L 163.8549 143.4778 " fill="#c5c5c5"/>
			<path d="M 326.2315 48.3347 L 326.2315 0.5883 L 407.8134 0.5883 L 326.2315 48.3347 Z" fill="#d1d1d1"/>
			<path d="M 163.1523 48.3347 L 163.1523 48.3347 L 81.644 0.5883 L 163.1523 0.5883 L 163.1523 48.3347 Z" fill="#d1d1d1"/>
			<path d="M 489.3799 48.3347 L 489.3799 48.3347 L 407.7825 0.5883 L 489.3799 0.5883 L 489.3799 48.3347 Z" fill="#d1d1d1"/>
			<path d="M 0.0737 48.3347 L 0.0737 0.5883 L 81.644 0.5883 L 0.0737 48.3347 Z" fill="#b3b3b3"/>
			<path d="M 244.7345 96.0806 L 244.7345 96.0806 L 163.1523 48.3347 L 244.7345 0.5883 L 244.7345 96.0806 Z" fill="#d9d9d9"/>
			<path d="M 326.2315 142.4778 L 326.2315 142.8896 L 326.2315 142.8896 L 325.5296 142.4778 " fill="#d9d9d9"/>
			<path d="M 325.5296 143.4778 L 244.7345 96.0806 L 326.2315 48.3347 L 326.2315 143.4778 " fill="#d9d9d9"/>
			<path d="M 81.644 143.4778 L 0.0737 143.8896 L 81.644 96.0806 L 81.644 143.4778 " fill="#999999"/>
			<path d="M 0.0737 143.8896 L 0.0737 143.8896 L 0.0737 48.3347 L 81.644 96.0806 L 0.0737 143.8896 Z" fill="#a6a6a6"/>
			<path d="M 162.4504 142.4778 L 163.1523 142.8896 L 81.644 142.4778 " fill="#c5c5c5"/>
			<path d="M 81.644 143.4778 L 81.644 96.0806 L 162.4504 143.4778 " fill="#c5c5c5"/>
			<path d="M 163.1523 142.4778 L 163.1523 142.8896 L 163.1523 142.8896 L 162.4504 142.4778 " fill="#cccccc"/>
			<path d="M 162.4504 143.4778 L 81.644 96.0806 L 163.1523 48.3347 L 163.1523 143.4778 " fill="#cccccc"/>
			<path d="M 81.644 96.0806 L 81.644 96.0806 L 81.644 0.5883 L 163.1523 48.3347 L 81.644 96.0806 Z" fill="#a6a6a6"/>
			<path d="M 81.644 96.0806 L 81.644 96.0806 L 0.0737 48.3347 L 81.644 0.5883 L 81.644 96.0806 Z" fill="#c5c5c5"/>
			<path d="M 407.7825 142.4778 L 326.2315 142.8896 L 326.9338 142.4778 " fill="#d9d9d9"/>
			<path d="M 326.9338 143.4778 L 407.7825 96.0806 L 407.7825 143.4778 " fill="#d9d9d9"/>
			<path d="M 326.9341 142.4778 L 326.2315 142.8896 L 326.2315 142.8896 L 326.2315 142.4778 " fill="#e6e6e6"/>
			<path d="M 326.2315 143.4778 L 326.2315 48.3347 L 407.8134 96.0806 L 326.9341 143.4778 " fill="#e6e6e6"/>
			<path d="M 488.6772 142.4778 L 489.3799 142.8896 L 407.7825 142.4778 " fill="#cccccc"/>
			<path d="M 407.7825 143.4778 L 407.7825 96.0806 L 488.6772 143.4778 " fill="#cccccc"/>
			<path d="M 489.3799 142.4778 L 489.3799 142.8896 L 489.3799 142.8896 L 489.3799 142.8896 L 488.6772 142.4778 " fill="#c5c5c5"/>
			<path d="M 488.6772 143.4778 L 407.7825 96.0806 L 489.3799 48.3347 L 489.3799 143.4778 " fill="#c5c5c5"/>
			<path d="M 407.7825 96.0806 L 407.7825 96.0806 L 407.7825 0.5883 L 489.3799 48.3347 L 407.7825 96.0806 Z" fill="#cccccc"/>
			<path d="M 407.7825 96.0806 L 407.7825 96.0806 L 326.2315 48.3347 L 407.7825 0.5883 L 407.7825 96.0806 Z" fill="#c5c5c5"/>
			<path d="M 326.2315 142.8896 L 326.2315 142.8896 L 326.2315 142.8896 Z" fill="#5d2d04"/>
			<path d="M 325.5296 142.4778 L 326.2315 142.8896 L 326.2586 142.8896 L 244.7345 142.4778 " fill="#cccccc"/>
			<path d="M 244.7345 143.4778 L 244.7345 96.0806 L 325.5296 143.4778 " fill="#cccccc"/>
			<path d="M 244.7345 142.4778 L 163.1523 142.8896 L 163.8549 142.4778 " fill="#cccccc"/>
			<path d="M 163.8549 143.4778 L 244.7345 96.0806 L 244.7345 143.4778 " fill="#cccccc"/>
			<path d="M 163.1523 48.3347 L 163.1523 48.3347 L 163.1523 0.5883 L 244.7345 0.5883 L 163.1523 48.3347 Z" fill="#d1d1d1"/>
			<path d="M 244.7345 96.0806 L 244.7345 0.5883 L 326.2586 48.3347 L 244.7345 96.0806 Z" fill="#d1d1d1"/>
			<path d="M 326.2315 48.3347 L 326.2315 48.3347 L 244.7345 0.5883 L 326.2315 0.5883 L 326.2315 48.3347 Z" fill="#d9d9d9"/>
			<path d="M 814.5986 143 L 815.3013 142.5883 L 815.3013 143 " fill="#c5c5c5"/>
			<path d="M 815.3013 143 L 815.3013 238.1432 L 733.7191 190.3972 L 814.5986 143 " fill="#c5c5c5"/>
			<path d="M 652.2221 238.1432 L 652.2221 285.8896 L 570.6401 285.8896 L 652.2221 238.1432 Z" fill="#d1d1d1"/>
			<path d="M 815.3013 238.1432 L 815.3013 238.1432 L 896.8096 285.8896 L 815.3013 285.8896 L 815.3013 238.1432 Z" fill="#d1d1d1"/>
			<path d="M 489.0737 238.1432 L 489.0737 238.1432 L 570.6711 285.8896 L 489.0737 285.8896 L 489.0737 238.1432 Z" fill="#d1d1d1"/>
			<path d="M 978.3799 238.1432 L 978.3799 285.8896 L 896.8096 285.8896 L 978.3799 238.1432 Z" fill="#b3b3b3"/>
			<path d="M 733.7191 190.3972 L 733.7191 190.3972 L 815.3013 238.1432 L 733.7191 285.8896 L 733.7191 190.3972 Z" fill="#d9d9d9"/>
			<path d="M 652.2221 143 L 652.2221 142.5883 L 652.2221 142.5883 L 652.924 143 " fill="#d9d9d9"/>
			<path d="M 652.924 143 L 733.7191 190.3972 L 652.2221 238.1432 L 652.2221 143 " fill="#d9d9d9"/>
			<path d="M 896.8096 143 L 978.3799 142.5883 L 896.8096 190.3972 L 896.8096 143 " fill="#999999"/>
			<path d="M 978.3799 142.5883 L 978.3799 142.5883 L 978.3799 238.1432 L 896.8096 190.3972 L 978.3799 142.5883 Z" fill="#a6a6a6"/>
			<path d="M 816.0032 143 L 815.3013 142.5883 L 896.8096 143 " fill="#c5c5c5"/>
			<path d="M 896.8096 143 L 896.8096 190.3972 L 816.0032 143 " fill="#c5c5c5"/>
			<path d="M 815.3013 143 L 815.3013 142.5883 L 815.3013 142.5883 L 816.0032 143 " fill="#cccccc"/>
			<path d="M 816.0032 143 L 896.8096 190.3972 L 815.3013 238.1432 L 815.3013 143 " fill="#cccccc"/>
			<path d="M 896.8096 190.3972 L 896.8096 190.3972 L 896.8096 285.8896 L 815.3013 238.1432 L 896.8096 190.3972 Z" fill="#a6a6a6"/>
			<path d="M 896.8096 190.3972 L 896.8096 190.3972 L 978.3799 238.1432 L 896.8096 285.8896 L 896.8096 190.3972 Z" fill="#c5c5c5"/>
			<path d="M 570.6711 143 L 652.2221 142.5883 L 651.5198 143 " fill="#d9d9d9"/>
			<path d="M 651.5198 143 L 570.6711 190.3972 L 570.6711 143 " fill="#d9d9d9"/>
			<path d="M 651.5195 143 L 652.2221 142.5883 L 652.2221 142.5883 L 652.2221 143 " fill="#e6e6e6"/>
			<path d="M 652.2221 143 L 652.2221 238.1432 L 570.6401 190.3972 L 651.5195 143 " fill="#e6e6e6"/>
			<path d="M 489.7764 143 L 489.0737 142.5883 L 570.6711 143 " fill="#cccccc"/>
			<path d="M 570.6711 143 L 570.6711 190.3972 L 489.7764 143 " fill="#cccccc"/>
			<path d="M 489.0737 143 L 489.0737 142.5883 L 489.0737 142.5883 L 489.0737 142.5883 L 489.7764 143 " fill="#c5c5c5"/>
			<path d="M 489.7764 143 L 570.6711 190.3972 L 489.0737 238.1432 L 489.0737 143 " fill="#c5c5c5"/>
			<path d="M 570.6711 190.3972 L 570.6711 190.3972 L 570.6711 285.8896 L 489.0737 238.1432 L 570.6711 190.3972 Z" fill="#cccccc"/>
			<path d="M 570.6711 190.3972 L 570.6711 190.3972 L 652.2221 238.1432 L 570.6711 285.8896 L 570.6711 190.3972 Z" fill="#c5c5c5"/>
			<path d="M 652.2221 142.5883 L 652.2221 142.5883 L 652.2221 142.5883 Z" fill="#5d2d04"/>
			<path d="M 652.924 143 L 652.2221 142.5883 L 652.1949 142.5883 L 733.7191 143 " fill="#cccccc"/>
			<path d="M 733.7191 143 L 733.7191 190.3972 L 652.924 143 " fill="#cccccc"/>
			<path d="M 733.7191 143 L 815.3013 142.5883 L 814.5986 143 " fill="#cccccc"/>
			<path d="M 814.5986 143 L 733.7191 190.3972 L 733.7191 143 " fill="#cccccc"/>
			<path d="M 815.3013 238.1432 L 815.3013 238.1432 L 815.3013 285.8896 L 733.7191 285.8896 L 815.3013 238.1432 Z" fill="#d1d1d1"/>
			<path d="M 733.7191 190.3972 L 733.7191 285.8896 L 652.1949 238.1432 L 733.7191 190.3972 Z" fill="#d1d1d1"/>
			<path d="M 652.2221 238.1432 L 652.2221 238.1432 L 733.7191 285.8896 L 652.2221 285.8896 L 652.2221 238.1432 Z" fill="#d9d9d9"/>
			<path d="M 814.5986 142.4778 L 815.3013 142.8896 L 815.3013 142.4778 " fill="#c5c5c5"/>
			<path d="M 815.3013 143.4778 L 815.3013 48.3347 L 733.7191 96.0806 L 814.5986 143.4778 " fill="#c5c5c5"/>
			<path d="M 652.2221 48.3347 L 652.2221 0.5883 L 570.6401 0.5883 L 652.2221 48.3347 Z" fill="#d1d1d1"/>
			<path d="M 815.3013 48.3347 L 815.3013 48.3347 L 896.8096 0.5883 L 815.3013 0.5883 L 815.3013 48.3347 Z" fill="#d1d1d1"/>
			<path d="M 489.0737 48.3347 L 489.0737 48.3347 L 570.6711 0.5883 L 489.0737 0.5883 L 489.0737 48.3347 Z" fill="#d1d1d1"/>
			<path d="M 978.3799 48.3347 L 978.3799 0.5883 L 896.8096 0.5883 L 978.3799 48.3347 Z" fill="#b3b3b3"/>
			<path d="M 733.7191 96.0806 L 733.7191 96.0806 L 815.3013 48.3347 L 733.7191 0.5883 L 733.7191 96.0806 Z" fill="#d9d9d9"/>
			<path d="M 652.2221 142.4778 L 652.2221 142.8896 L 652.2221 142.8896 L 652.924 142.4778 " fill="#d9d9d9"/>
			<path d="M 652.924 143.4778 L 733.7191 96.0806 L 652.2221 48.3347 L 652.2221 143.4778 " fill="#d9d9d9"/>
			<path d="M 896.8096 143.4778 L 978.3799 143.8896 L 896.8096 96.0806 L 896.8096 143.4778 " fill="#999999"/>
			<path d="M 978.3799 143.8896 L 978.3799 143.8896 L 978.3799 48.3347 L 896.8096 96.0806 L 978.3799 143.8896 Z" fill="#a6a6a6"/>
			<path d="M 816.0032 142.4778 L 815.3013 142.8896 L 896.8096 142.4778 " fill="#c5c5c5"/>
			<path d="M 896.8096 143.4778 L 896.8096 96.0806 L 816.0032 143.4778 " fill="#c5c5c5"/>
			<path d="M 815.3013 142.4778 L 815.3013 142.8896 L 815.3013 142.8896 L 816.0032 142.4778 " fill="#cccccc"/>
			<path d="M 816.0032 143.4778 L 896.8096 96.0806 L 815.3013 48.3347 L 815.3013 143.4778 " fill="#cccccc"/>
			<path d="M 896.8096 96.0806 L 896.8096 96.0806 L 896.8096 0.5883 L 815.3013 48.3347 L 896.8096 96.0806 Z" fill="#a6a6a6"/>
			<path d="M 896.8096 96.0806 L 896.8096 96.0806 L 978.3799 48.3347 L 896.8096 0.5883 L 896.8096 96.0806 Z" fill="#c5c5c5"/>
			<path d="M 570.6711 142.4778 L 652.2221 142.8896 L 651.5198 142.4778 " fill="#d9d9d9"/>
			<path d="M 651.5198 143.4778 L 570.6711 96.0806 L 570.6711 143.4778 " fill="#d9d9d9"/>
			<path d="M 651.5195 142.4778 L 652.2221 142.8896 L 652.2221 142.8896 L 652.2221 142.4778 " fill="#e6e6e6"/>
			<path d="M 652.2221 143.4778 L 652.2221 48.3347 L 570.6401 96.0806 L 651.5195 143.4778 " fill="#e6e6e6"/>
			<path d="M 489.7764 142.4778 L 489.0737 142.8896 L 570.6711 142.4778 " fill="#cccccc"/>
			<path d="M 570.6711 143.4778 L 570.6711 96.0806 L 489.7764 143.4778 " fill="#cccccc"/>
			<path d="M 489.0737 142.4778 L 489.0737 142.8896 L 489.0737 142.8896 L 489.0737 142.8896 L 489.7764 142.4778 " fill="#c5c5c5"/>
			<path d="M 489.7764 143.4778 L 570.6711 96.0806 L 489.0737 48.3347 L 489.0737 143.4778 " fill="#c5c5c5"/>
			<path d="M 570.6711 96.0806 L 570.6711 96.0806 L 570.6711 0.5883 L 489.0737 48.3347 L 570.6711 96.0806 Z" fill="#cccccc"/>
			<path d="M 570.6711 96.0806 L 570.6711 96.0806 L 652.2221 48.3347 L 570.6711 0.5883 L 570.6711 96.0806 Z" fill="#c5c5c5"/>
			<path d="M 652.2221 142.8896 L 652.2221 142.8896 L 652.2221 142.8896 Z" fill="#5d2d04"/>
			<path d="M 652.924 142.4778 L 652.2221 142.8896 L 652.1949 142.8896 L 733.7191 142.4778 " fill="#cccccc"/>
			<path d="M 733.7191 143.4778 L 733.7191 96.0806 L 652.924 143.4778 " fill="#cccccc"/>
			<path d="M 733.7191 142.4778 L 815.3013 142.8896 L 814.5986 142.4778 " fill="#cccccc"/>
			<path d="M 814.5986 143.4778 L 733.7191 96.0806 L 733.7191 143.4778 " fill="#cccccc"/>
			<path d="M 815.3013 48.3347 L 815.3013 48.3347 L 815.3013 0.5883 L 733.7191 0.5883 L 815.3013 48.3347 Z" fill="#d1d1d1"/>
			<path d="M 733.7191 96.0806 L 733.7191 0.5883 L 652.1949 48.3347 L 733.7191 96.0806 Z" fill="#d1d1d1"/>
			<path d="M 652.2221 48.3347 L 652.2221 48.3347 L 733.7191 0.5883 L 652.2221 0.5883 L 652.2221 48.3347 Z" fill="#d9d9d9"/>
		</g>
	</g>
</svg>